<svg width="24" height="24" viewBox="0 0 24 24" fill="none" xmlns="http://www.w3.org/2000/svg">
    <path d="M6 0H14.25V1.5H6C5.17157 1.5 4.5 2.17157 4.5 3V21C4.5 21.8284 5.17157 22.5 6 22.5H18C18.8284 22.5 19.5 21.8284 19.5 21V6.75H21V21C21 22.6569 19.6569 24 18 24H6C4.34315 24 3 22.6569 3 21V3C3 1.34314 4.34315 0 6 0Z" fill="#434343"/>
    <path d="M14.25 4.5V0L21 6.75H16.5C15.2574 6.75 14.25 5.74264 14.25 4.5Z" fill="#434343"/>
    <path fill-rule="evenodd" clip-rule="evenodd" d="M8 16.3C8 15.9134 8.29848 15.6 8.66667 15.6H11.3333C11.7015 15.6 12 15.9134 12 16.3C12 16.6866 11.7015 17 11.3333 17H8.66667C8.29848 17 8 16.6866 8 16.3Z" fill="#434343"/>
    <path fill-rule="evenodd" clip-rule="evenodd" d="M8 13.5C8 13.1134 8.29848 12.8 8.66667 12.8H15.3333C15.7015 12.8 16 13.1134 16 13.5C16 13.8866 15.7015 14.2 15.3333 14.2H8.66667C8.29848 14.2 8 13.8866 8 13.5Z" fill="#434343"/>
    <path fill-rule="evenodd" clip-rule="evenodd" d="M8 10.7C8 10.3134 8.29848 10 8.66667 10H15.3333C15.7015 10 16 10.3134 16 10.7C16 11.0866 15.7015 11.4 15.3333 11.4H8.66667C8.29848 11.4 8 11.0866 8 10.7Z" fill="#434343"/>
</svg>
