<svg width="20" height="20" viewBox="0 0 20 20" fill="none" xmlns="http://www.w3.org/2000/svg">
    <path d="M5.7168 4.00573V2.28906" stroke="#434343" stroke-linecap="round" stroke-linejoin="round"/>
    <path d="M14.2837 4.00573V2.28906" stroke="#434343" stroke-linecap="round" stroke-linejoin="round"/>
    <path d="M15.042 3.14746H4.95866C3.48366 3.14746 2.29199 4.33913 2.29199 5.81413V15.0475C2.29199 16.5225 3.48366 17.7141 4.95866 17.7141H15.0503C16.5253 17.7141 17.717 16.5225 17.717 15.0475V5.81413C17.7087 4.33913 16.517 3.14746 15.042 3.14746Z" stroke="#434343" stroke-linecap="round" stroke-linejoin="round"/>
    <path d="M2.29199 6.58008H17.7087" stroke="#434343" stroke-linecap="round" stroke-linejoin="round"/>
    <path d="M15.0003 9.9987C15.4606 9.9987 15.8337 9.6256 15.8337 9.16536C15.8337 8.70513 15.4606 8.33203 15.0003 8.33203C14.5401 8.33203 14.167 8.70513 14.167 9.16536C14.167 9.6256 14.5401 9.9987 15.0003 9.9987Z" fill="#434343"/>
    <path d="M11.6663 9.9987C12.1266 9.9987 12.4997 9.6256 12.4997 9.16536C12.4997 8.70513 12.1266 8.33203 11.6663 8.33203C11.2061 8.33203 10.833 8.70513 10.833 9.16536C10.833 9.6256 11.2061 9.9987 11.6663 9.9987Z" fill="#434343"/>
    <path d="M8.33333 9.9987C8.79357 9.9987 9.16667 9.6256 9.16667 9.16536C9.16667 8.70513 8.79357 8.33203 8.33333 8.33203C7.8731 8.33203 7.5 8.70513 7.5 9.16536C7.5 9.6256 7.8731 9.9987 8.33333 9.9987Z" fill="#434343"/>
    <path d="M5.00033 9.9987C5.46056 9.9987 5.83366 9.6256 5.83366 9.16536C5.83366 8.70513 5.46056 8.33203 5.00033 8.33203C4.54009 8.33203 4.16699 8.70513 4.16699 9.16536C4.16699 9.6256 4.54009 9.9987 5.00033 9.9987Z" fill="#434343"/>
    <path d="M15.0003 12.9079C15.4606 12.9079 15.8337 12.5348 15.8337 12.0745C15.8337 11.6143 15.4606 11.2412 15.0003 11.2412C14.5401 11.2412 14.167 11.6143 14.167 12.0745C14.167 12.5348 14.5401 12.9079 15.0003 12.9079Z" fill="#434343"/>
    <path d="M11.6663 12.9079C12.1266 12.9079 12.4997 12.5348 12.4997 12.0745C12.4997 11.6143 12.1266 11.2412 11.6663 11.2412C11.2061 11.2412 10.833 11.6143 10.833 12.0745C10.833 12.5348 11.2061 12.9079 11.6663 12.9079Z" fill="#434343"/>
    <path d="M8.33333 12.9079C8.79357 12.9079 9.16667 12.5348 9.16667 12.0745C9.16667 11.6143 8.79357 11.2412 8.33333 11.2412C7.8731 11.2412 7.5 11.6143 7.5 12.0745C7.5 12.5348 7.8731 12.9079 8.33333 12.9079Z" fill="#434343"/>
    <path d="M5.00033 12.9079C5.46056 12.9079 5.83366 12.5348 5.83366 12.0745C5.83366 11.6143 5.46056 11.2412 5.00033 11.2412C4.54009 11.2412 4.16699 11.6143 4.16699 12.0745C4.16699 12.5348 4.54009 12.9079 5.00033 12.9079Z" fill="#434343"/>
    <path d="M11.6668 15.8063C12.1271 15.8063 12.5002 15.4332 12.5002 14.973C12.5002 14.5127 12.1271 14.1396 11.6668 14.1396C11.2066 14.1396 10.8335 14.5127 10.8335 14.973C10.8335 15.4332 11.2066 15.8063 11.6668 15.8063Z" fill="#434343"/>
    <path d="M8.33333 15.8063C8.79357 15.8063 9.16667 15.4332 9.16667 14.973C9.16667 14.5127 8.79357 14.1396 8.33333 14.1396C7.8731 14.1396 7.5 14.5127 7.5 14.973C7.5 15.4332 7.8731 15.8063 8.33333 15.8063Z" fill="#434343"/>
    <path d="M4.99984 15.8073C5.46007 15.8073 5.83317 15.4342 5.83317 14.974C5.83317 14.5137 5.46007 14.1406 4.99984 14.1406C4.5396 14.1406 4.1665 14.5137 4.1665 14.974C4.1665 15.4342 4.5396 15.8073 4.99984 15.8073Z" fill="#434343"/>
</svg>
