<svg width="24" height="24" viewBox="0 0 24 24" fill="none" xmlns="http://www.w3.org/2000/svg">
    <path d="M3 10.9563C3 9.72191 3.56989 8.55669 4.54424 7.79886L9.54424 3.90997C10.9887 2.78652 13.0113 2.78652 14.4558 3.90997L19.4558 7.79886C20.4301 8.55669 21 9.72191 21 10.9563V16.9999C21 19.2091 19.2091 20.9999 17 20.9999H7C4.79086 20.9999 3 19.2091 3 16.9999V10.9563Z" fill="#737373"/>
    <path d="M8.5 18.5C8.5 17.0955 8.5 16.3933 8.83706 15.8889C8.98298 15.6705 9.17048 15.483 9.38886 15.3371C9.89331 15 10.5955 15 12 15C13.4045 15 14.1067 15 14.6111 15.3371C14.8295 15.483 15.017 15.6705 15.1629 15.8889C15.5 16.3933 15.5 17.0955 15.5 18.5V19.5C15.5 20.9045 15.5 21.6067 15.1629 22.1111C15.017 22.3295 14.8295 22.517 14.6111 22.6629C14.1067 23 13.4045 23 12 23C10.5955 23 9.89331 23 9.38886 22.6629C9.17048 22.517 8.98298 22.3295 8.83706 22.1111C8.5 21.6067 8.5 20.9045 8.5 19.5V18.5Z" fill="white"/>
</svg>
