<svg width="24" height="24" viewBox="0 0 24 24" fill="none" xmlns="http://www.w3.org/2000/svg">
    <path fill-rule="evenodd" clip-rule="evenodd" d="M13.8751 5.25C13.8751 4.83579 14.2108 4.5 14.6251 4.5H20.6251C21.0393 4.5 21.3751 4.83579 21.3751 5.25V11.25C21.3751 11.6642 21.0393 12 20.6251 12C20.2108 12 19.8751 11.6642 19.8751 11.25V7.35106L14.4555 13.9749C14.3213 14.1389 14.124 14.2385 13.9124 14.2491C13.7008 14.2596 13.4946 14.1802 13.3447 14.0303L9.46536 10.151L3.9816 17.6911C3.73798 18.0261 3.26891 18.1002 2.93392 17.8566C2.59893 17.6129 2.52487 17.1439 2.7685 16.8089L8.7685 8.55887C8.89751 8.38148 9.09771 8.26945 9.31639 8.2523C9.53506 8.23514 9.75028 8.31457 9.90538 8.46967L13.8194 12.3837L19.0424 6H14.6251C14.2108 6 13.8751 5.66421 13.8751 5.25Z" fill="#434343"/>
</svg>
