<svg width="24" height="24" viewBox="0 0 24 24" fill="none" xmlns="http://www.w3.org/2000/svg">
    <path fill-rule="evenodd" clip-rule="evenodd" d="M13.2559 2.43915C12.8868 1.18695 11.1132 1.18695 10.7441 2.43915L10.6033 2.91677C10.0973 4.63349 8.13649 5.44569 6.56479 4.58958L6.12752 4.3514C4.9811 3.72695 3.72695 4.9811 4.3514 6.12752L4.58959 6.56479C5.44569 8.13649 4.63349 10.0973 2.91677 10.6033L2.43915 10.7441C1.18695 11.1132 1.18695 12.8868 2.43915 13.2559L2.91677 13.3967C4.63349 13.9027 5.44569 15.8635 4.58958 17.4352L4.3514 17.8725C3.72694 19.0189 4.9811 20.2731 6.12752 19.6486L6.56479 19.4104C8.13649 18.5543 10.0973 19.3665 10.6033 21.0832L10.7441 21.5609C11.1132 22.813 12.8868 22.813 13.2559 21.5609L13.3967 21.0832C13.9027 19.3665 15.8635 18.5543 17.4352 19.4104L17.8725 19.6486C19.0189 20.2731 20.2731 19.0189 19.6486 17.8725L19.4104 17.4352C18.5543 15.8635 19.3665 13.9027 21.0832 13.3967L21.5609 13.2559C22.813 12.8868 22.813 11.1132 21.5609 10.7441L21.0832 10.6033C19.3665 10.0973 18.5543 8.13649 19.4104 6.56479L19.6486 6.12752C20.2731 4.98111 19.0189 3.72694 17.8725 4.3514L17.4352 4.58959C15.8635 5.44569 13.9027 4.63349 13.3967 2.91677L13.2559 2.43915ZM9.30529 2.01506C10.0972 -0.671687 13.9028 -0.671689 14.6947 2.01506L14.8355 2.49269C15.0713 3.29279 15.9852 3.67133 16.7177 3.27233L17.155 3.03414C19.6147 1.69429 22.3057 4.38524 20.9659 6.84503L20.7277 7.28231C20.3287 8.01482 20.7072 8.92869 21.5073 9.16452L21.9849 9.30529C24.6717 10.0972 24.6717 13.9028 21.9849 14.6947L21.5073 14.8355C20.7072 15.0713 20.3287 15.9852 20.7277 16.7177L20.9659 17.155C22.3057 19.6148 19.6148 22.3057 17.155 20.9659L16.7177 20.7277C15.9852 20.3287 15.0713 20.7072 14.8355 21.5073L14.6947 21.9849C13.9028 24.6717 10.0972 24.6717 9.30529 21.9849L9.16451 21.5073C8.92869 20.7072 8.01482 20.3287 7.28231 20.7277L6.84503 20.9659C4.38524 22.3057 1.69429 19.6147 3.03414 17.155L3.27232 16.7177C3.67133 15.9852 3.29279 15.0713 2.49269 14.8355L2.01506 14.6947C-0.671687 13.9028 -0.671689 10.0972 2.01506 9.30529L2.49269 9.16452C3.29279 8.92869 3.67133 8.01482 3.27233 7.28231L3.03414 6.84504C1.69429 4.38525 4.38524 1.69429 6.84503 3.03414L7.2823 3.27233C8.01482 3.67133 8.92869 3.29279 9.16451 2.49269L9.30529 2.01506Z" fill="#434343"/>
    <path fill-rule="evenodd" clip-rule="evenodd" d="M12 8.63086C10.1395 8.63086 8.63135 10.1391 8.63135 11.9995C8.63135 13.86 10.1395 15.3681 12 15.3681C13.8604 15.3681 15.3686 13.86 15.3686 11.9995C15.3686 10.1391 13.8604 8.63086 12 8.63086ZM7.13135 11.9995C7.13135 9.31063 9.31111 7.13086 12 7.13086C14.6889 7.13086 16.8686 9.31063 16.8686 11.9995C16.8686 14.6884 14.6889 16.8681 12 16.8681C9.31111 16.8681 7.13135 14.6884 7.13135 11.9995Z" fill="#434343"/>
</svg>
