<svg width="24" height="24" viewBox="0 0 24 24" fill="none" xmlns="http://www.w3.org/2000/svg">
    <path d="M1.54872 22.4524L6.19388 21.175C7.8584 22.2202 9.8713 22.8395 12.0003 22.8395C18.0003 22.8395 22.839 18.0008 22.839 12.0008C22.839 6.00082 18.0003 1.16211 12.0003 1.16211C6.00033 1.16211 1.16162 6.00082 1.16162 12.0008C1.16162 14.1299 1.78098 16.1428 2.82614 17.8073L1.54872 22.4524Z" fill="#25D366" stroke="white" stroke-width="1.93548" stroke-miterlimit="10"/>
    <path d="M17.3808 14.9422C16.6453 16.4906 15.2905 16.6841 15.2905 16.6841C14.1292 16.9164 12.6582 16.4132 11.4969 15.8712C9.83243 15.0971 8.40017 13.8583 7.43243 12.2712C7.00662 11.5358 6.61952 10.6841 6.58081 9.87125C6.58081 9.87125 6.42597 8.51641 7.7421 7.43254C7.85823 7.35512 7.97436 7.31641 8.1292 7.31641H8.70985C8.9421 7.31641 9.17436 7.47124 9.25178 7.7035L10.1421 9.87125C10.2195 10.1035 10.1808 10.3358 10.026 10.5293L9.44533 11.1487C9.25178 11.3422 9.25178 11.6132 9.36791 11.8454C9.40662 11.9229 9.48404 12.039 9.60017 12.1551C10.2969 13.0841 11.226 13.7809 12.2711 14.2454C12.426 14.3229 12.5421 14.3616 12.6582 14.4003C12.9292 14.4777 13.1615 14.3616 13.3163 14.168L13.7808 13.4712C13.8969 13.2777 14.1292 13.1616 14.3615 13.2003L16.684 13.5487C16.9163 13.5874 17.1098 13.7809 17.1873 14.0132L17.3421 14.5938C17.4195 14.6712 17.4195 14.8261 17.3808 14.9422Z" fill="white"/>
</svg>
