<svg width="24" height="24" viewBox="0 0 24 24" fill="none" xmlns="http://www.w3.org/2000/svg">
    <g clip-path="url(#clip0_557_19063)">
        <path d="M23.5221 6.18492C23.3864 5.67434 23.119 5.20834 22.7466 4.83358C22.3743 4.45881 21.91 4.18842 21.4003 4.04947C19.5239 3.54492 12.0239 3.54492 12.0239 3.54492C12.0239 3.54492 4.52393 3.54492 2.64756 4.04947C2.13786 4.18842 1.67358 4.45881 1.30121 4.83358C0.928842 5.20834 0.661431 5.67434 0.525744 6.18492C0.0239258 8.06947 0.0239258 11.9995 0.0239258 11.9995C0.0239258 11.9995 0.0239258 15.9295 0.525744 17.814C0.661431 18.3246 0.928842 18.7906 1.30121 19.1654C1.67358 19.5401 2.13786 19.8105 2.64756 19.9495C4.52393 20.454 12.0239 20.454 12.0239 20.454C12.0239 20.454 19.5239 20.454 21.4003 19.9495C21.91 19.8105 22.3743 19.5401 22.7466 19.1654C23.119 18.7906 23.3864 18.3246 23.5221 17.814C24.0239 15.9295 24.0239 11.9995 24.0239 11.9995C24.0239 11.9995 24.0239 8.06947 23.5221 6.18492Z" fill="#FF0302"/>
        <path d="M9.56934 15.5689V8.43164L15.8421 12.0003L9.56934 15.5689Z" fill="#FEFEFE"/>
    </g>
    <defs>
        <clipPath id="clip0_557_19063">
            <rect width="24" height="24" fill="white"/>
        </clipPath>
    </defs>
</svg>
